<svg version="1.1" id="Layer_1" xmlns="http://www.w3.org/2000/svg" x="0" y="0" viewBox="0 0 1100 452.3" xml:space="preserve">
  <style>
    .ssd1{fill:none;stroke:gray}.ssd1,.ssd2,.ssd3{stroke-linecap:round;stroke-linejoin:round;stroke-miterlimit:10}.ssd2{fill:none;stroke:#efefef}.ssd3{stroke:gray}.ssd3,.ssd4{fill:#fff}.ssd4,.ssd5{stroke:#68cef5;stroke-width:2;stroke-linecap:round;stroke-linejoin:round;stroke-miterlimit:10}.ssd5,.ssd7{fill:none}.ssd8{fill:#68cef5}.ssd9{font-family:&apos;OpenSans-Light&apos;}.ssd10{font-size:36px}
  </style>
  <path d="M337 292.7c-.9-2.8-1.7-5.6-2.5-8.5C302.4 165 373 42.4 492.2 10.3S733.9 48.8 766 167.9s-38.5 241.8-157.6 273.8c-116.3 31.4-235.9-35-271.4-149" fill="#fff"/>
  <path class="ssd1" d="M116.2 226.5H.3"/>
  <path class="ssd2" d="M182.4 279.9V173.2"/>
  <g>
    <path transform="rotate(-180 142.4545 226.5194)" class="ssd3" d="M136 193.4h12.9v66.2H136z"/>
    <path transform="rotate(-180 65.828 226.8354)" class="ssd3" d="M50.3 220.4h31.1v12.9H50.3z"/>
    <path id="svg-concept" class="ssd4" d="M82.6 184.2h52c.7 0 1.3.6 1.3 1.3v82.1c0 .7-.6 1.3-1.3 1.3h-52c-.7 0-1.3-.6-1.3-1.3v-82.1c.1-.7.7-1.3 1.3-1.3z"/>
    <animateMotion path="M0, 0 65 0 -65" begin="0s" dur="2s" fill="freeze"/>
  </g>
  <g>
    <path id="svg-concept" class="ssd5" d="M450 50.2s55.2 46.3 84.2 145.2M390.2 102.5S459 123.9 523.9 204M355.3 173.7s71.8-6.6 162.4 42.5M350.3 251.5s63.9-33.3 166.3-22.2M375.8 326.4s46.3-55.2 145.2-84M428.5 386s21.5-68.7 101.8-133.3M744.7 278.6s-71.4 6.3-161.7-43.4M750.2 199.3s-63.5 33.4-166 22.3M724.8 124.3s-45.9 55.2-144.8 84.3M673.5 65.5s-21.6 68.5-102 132.9M602.6 30.4s6.1 71.7-43.7 162M523.2 25.3s33.2 64 21.8 166.4M499.6 420.7s-6.6-71.8 42.6-162.3M578.4 425.2s-33.6-63.7-22.9-166.2M651.6 399.9s-56.7-51-84.2-145.1M710.4 348.4s-68.7-21.7-133.3-102"/>
    <animateTransform attributeName="transform" type="rotate" from="0 555 222" to="360 546 227" begin="2s" dur="3s" repeatCount="indefinite"/>
    <animateTransform attributeName="transform" type="rotate" from="0 555 222" to="360 546 227" begin="5s" dur="1.5s" repeatCount="indefinite"/>
  </g>
  <path class="ssd3" d="M743.9 336.7c61.6-106.9 24.8-243.5-82.2-305.1-106.9-61.5-243.5-24.7-305.1 82.2s-24.8 243.5 82.2 305.1c107 61.6 243.5 24.8 305.1-82.2zm-302.8 28.8c20.8-36.1 8.4-82.2-27.8-103-19.8-11.4-42.6-12.8-62.6-5.8-6.7-44 .8-90.4 24.7-132S435.8 53.3 477.2 37c4 20.8 16.6 39.9 36.5 51.3 36.1 20.8 82.2 8.4 103-27.8 4.4-7.6 7.2-15.6 8.8-23.7 9.3 3.7 18.5 8 27.4 13.2 74.5 42.9 111.6 125.9 99.6 206.1-33.6-11.8-71.9 1.6-90.3 33.6s-10.8 71.8 16.3 94.9C615.2 435.3 524.8 445 450.2 402c-8.9-5.1-17.3-10.9-25.2-17.1 6.3-5.3 11.8-11.9 16.1-19.4z"/>
  <path class="ssd3" d="M708.3 306.4c1.1 4-1.3 8.1-5.3 9.1-4 1.1-8.1-1.3-9.1-5.3-1.1-4 1.3-8 5.3-9.1 4-1 8 1.3 9.1 5.3z"/>
  <path class="ssd3" d="M703.8 307.6c.4 1.5-.5 3-1.9 3.4-1.5.4-3-.5-3.4-2-.4-1.5.5-3 1.9-3.4 1.5-.3 3 .6 3.4 2zM708.3 306.4l-4.5 1.2M698.4 309.1l-4.5 1.2M555.9 54.6c1.1 4-1.3 8.1-5.3 9.1-4 1.1-8.1-1.3-9.1-5.3s1.3-8 5.3-9.1c4-1.1 8.1 1.3 9.1 5.3z"/>
  <path class="ssd3" d="M551.4 55.8c.4 1.5-.5 3-1.9 3.4-1.5.4-3-.5-3.4-2-.4-1.5.5-3 1.9-3.4 1.5-.4 3 .5 3.4 2zM555.9 54.6l-4.5 1.2M546.1 57.2l-4.5 1.3M411.5 304.9c1.1 4-1.3 8.1-5.3 9.1-4 1.1-8.1-1.3-9.1-5.3-1.1-4 1.3-8 5.3-9.1 3.9-1.1 8 1.3 9.1 5.3z"/>
  <path class="ssd3" d="M406.9 306.1c.4 1.5-.5 3-1.9 3.4-1.5.4-3-.5-3.4-2-.4-1.5.5-3 1.9-3.4 1.5-.4 3 .5 3.4 2zM411.5 304.9l-4.6 1.2M401.6 307.5l-4.5 1.2M579.9 242.3c-9.4 16.3-30.2 21.9-46.5 12.5-16.3-9.4-21.9-30.2-12.5-46.5 9.4-16.3 30.1-21.9 46.4-12.5 16.4 9.4 22 30.2 12.6 46.5z"/>
  <path class="ssd1" d="M561.4 231.6c-3.5 6-11.2 8.1-17.2 4.7-6-3.5-8.1-11.2-4.6-17.2s11.2-8.1 17.2-4.6c5.9 3.4 8 11.1 4.6 17.1zM579.9 242.3l-18.6-10.6M537.8 221.9l-18.4-10.6"/>
  <path id="svg-concept" d="M337 291.9c-.9-2.8-1.7-5.6-2.5-8.5C302.4 164.2 373 41.6 492.2 9.5S733.9 48 766 167.2 727.5 408.9 608.4 441C492.1 472.3 372.5 405.9 337 291.9" fill="none" stroke="#68cef5" stroke-width="3" stroke-linecap="round" stroke-linejoin="round" stroke-miterlimit="10"/>
  <path class="ssd1" d="M984.3 225.6h116"/>
  <path class="ssd2" d="M918.1 172.2V279"/>
  <g>
    <path class="ssd3" d="M951.6 192.5h12.9v66.2h-12.9zM1019.1 218.8h31.1v12.9h-31.1z"/>
    <path id="svg-concept" class="ssd4" d="M1017.9 267.9h-52c-.7 0-1.3-.6-1.3-1.3v-82.1c0-.7.6-1.3 1.3-1.3h52c.7 0 1.3.6 1.3 1.3v82.1c-.1.7-.6 1.3-1.3 1.3z"/>
    <animateMotion path="M0, 0 -65 0 65" begin="3s" dur="2s" fill="freeze"/>
  </g>
  <g>
    <path class="ssd3" d="M187 97.1h193.4c2.5 0 4.6 2.1 4.6 4.6v248.6c0 2.5-2.1 4.6-4.6 4.6H187c-2.5 0-4.6-2.1-4.6-4.6v-70.5h19.1V173.2h-19.1v-71.4c0-2.6 2.1-4.7 4.6-4.7z"/>
    <path class="ssd3" d="M240.2 173.2h106.5v106.5H240.2z"/>
    <path class="ssd7" d="M240.2 210h106.5v32.3H240.2z"/>
    <text id="svg-ico" transform="translate(255.073 237.3931)" class="ssd8 ssd9 ssd10">
      HDD
    </text>
    <path class="ssd3" d="M361.8 127.2c0 3.5-2.9 6.4-6.4 6.4-3.5 0-6.4-2.9-6.4-6.4s2.9-6.4 6.4-6.4c3.6 0 6.4 2.8 6.4 6.4z"/>
    <path class="ssd3" d="M357.8 127.2c0 1.3-1.1 2.4-2.4 2.4-1.3 0-2.4-1.1-2.4-2.4s1.1-2.4 2.4-2.4c1.3 0 2.4 1 2.4 2.4zM361.8 127.2h-4M353 127.2h-4"/>
    <g>
      <path class="ssd3" d="M218.9 127.2c0 3.5-2.9 6.4-6.4 6.4-3.5 0-6.4-2.9-6.4-6.4s2.9-6.4 6.4-6.4c3.5 0 6.4 2.8 6.4 6.4z"/>
      <path class="ssd3" d="M214.8 127.2c0 1.3-1.1 2.4-2.4 2.4-1.3 0-2.4-1.1-2.4-2.4s1.1-2.4 2.4-2.4c1.4 0 2.4 1 2.4 2.4zM218.9 127.2h-4.1M210.1 127.2H206"/>
    </g>
    <g>
      <path class="ssd3" d="M361.8 324.9c0 3.5-2.9 6.4-6.4 6.4-3.5 0-6.4-2.9-6.4-6.4s2.9-6.4 6.4-6.4c3.6 0 6.4 2.9 6.4 6.4z"/>
      <path class="ssd3" d="M357.8 324.9c0 1.3-1.1 2.4-2.4 2.4-1.3 0-2.4-1.1-2.4-2.4 0-1.3 1.1-2.4 2.4-2.4 1.3.1 2.4 1.1 2.4 2.4zM361.8 325h-4M353 325h-4"/>
    </g>
    <g>
      <path class="ssd3" d="M218.9 324.9c0 3.5-2.9 6.4-6.4 6.4-3.5 0-6.4-2.9-6.4-6.4s2.9-6.4 6.4-6.4c3.5 0 6.4 2.9 6.4 6.4z"/>
      <path class="ssd3" d="M214.8 324.9c0 1.3-1.1 2.4-2.4 2.4-1.3 0-2.4-1.1-2.4-2.4 0-1.3 1.1-2.4 2.4-2.4 1.4.1 2.4 1.1 2.4 2.4zM218.9 325h-4.1M210.1 325H206"/>
    </g>
  </g>
  <g>
    <path class="ssd3" d="M913.5 355H720.1c-2.5 0-4.6-2.1-4.6-4.6V101.8c0-2.5 2.1-4.6 4.6-4.6h193.4c2.5 0 4.6 2.1 4.6 4.6v70.5H899V279h19.1v71.4c0 2.5-2.1 4.6-4.6 4.6z"/>
    <path transform="rotate(-180 807.0928 225.7086)" class="ssd3" d="M753.9 172.5h106.5V279H753.9z"/>
    <path class="ssd3" d="M738.7 325c0-3.5 2.9-6.4 6.4-6.4 3.5 0 6.4 2.9 6.4 6.4s-2.9 6.4-6.4 6.4c-3.5 0-6.4-2.9-6.4-6.4z"/>
    <path class="ssd3" d="M742.7 325c0-1.3 1.1-2.4 2.4-2.4 1.3 0 2.4 1.1 2.4 2.4 0 1.3-1.1 2.4-2.4 2.4-1.3-.1-2.4-1.1-2.4-2.4zM738.7 324.9h4M747.5 324.9h4M881.7 325c0-3.5 2.9-6.4 6.4-6.4 3.5 0 6.4 2.9 6.4 6.4s-2.9 6.4-6.4 6.4c-3.6 0-6.4-2.9-6.4-6.4z"/>
    <path class="ssd3" d="M885.7 325c0-1.3 1.1-2.4 2.4-2.4 1.3 0 2.4 1.1 2.4 2.4 0 1.3-1.1 2.4-2.4 2.4-1.3-.1-2.4-1.1-2.4-2.4zM881.7 324.9h4M890.5 324.9h4"/>
    <g>
      <path class="ssd3" d="M738.7 127.2c0-3.5 2.9-6.4 6.4-6.4 3.5 0 6.4 2.9 6.4 6.4s-2.9 6.4-6.4 6.4c-3.5 0-6.4-2.9-6.4-6.4z"/>
      <path class="ssd3" d="M742.7 127.2c0-1.3 1.1-2.4 2.4-2.4 1.3 0 2.4 1.1 2.4 2.4s-1.1 2.4-2.4 2.4c-1.3-.1-2.4-1.1-2.4-2.4zM738.7 127.2h4M747.5 127.2h4"/>
    </g>
    <g>
      <path class="ssd3" d="M881.7 127.2c0-3.5 2.9-6.4 6.4-6.4 3.5 0 6.4 2.9 6.4 6.4s-2.9 6.4-6.4 6.4c-3.6 0-6.4-2.9-6.4-6.4z"/>
      <path class="ssd3" d="M885.7 127.2c0-1.3 1.1-2.4 2.4-2.4 1.3 0 2.4 1.1 2.4 2.4s-1.1 2.4-2.4 2.4c-1.3-.1-2.4-1.1-2.4-2.4zM881.7 127.2h4M890.5 127.2h4"/>
    </g>
    <path class="ssd7" d="M754.2 210h106.5v32.3H754.2z"/>
    <text id="svg-ico" transform="translate(775.1111 237.3931)" class="ssd8 ssd9 ssd10">
      SSD
    </text>
  </g>
</svg>
